<svg width="256" height="512" viewBox="0 0 256 512" version="1.1" xmlns="http://www.w3.org/2000/svg" xmlns:xlink="http://www.w3.org/1999/xlink">
<g id="Canvas" fill="none">
<g id="lights_on">
<g id="bulb">
<g id="bulb_shadow">
<path d="M 77.723 213.831C 77.723 264.899 45.852 308.516 0.907006 325.886C 37.972 305.45 63.077 265.991 63.077 220.665C 63.077 193.062 53.762 167.625 38.1 147.344C 13.016 114.849 -7.08008e-06 74.629 -7.08008e-06 33.57L -7.08008e-06 -4.27246e-07L 14.646 -4.27246e-07L 14.646 26.735C 14.646 67.794 27.662 108.014 52.746 140.509C 68.408 160.79 77.723 186.226 77.723 213.831Z" transform="translate(169.967 418.902) scale(1 -1)" fill="#FE9700"/>
</g>
<g id="bulb_body">
<path d="M 240.19 213.83C 240.19 280.755 185.451 334.888 118.302 333.912C 53.4759 332.965 0.70086 279.964 0.00686024 215.139C -0.28614 187.389 8.82387 161.786 24.3589 141.32C 46.2699 112.428 59.7639 78.164 62.5469 42.251C 62.9079 37.662 63.0839 33.043 63.0839 28.405L 63.0839 -9.76563e-07L 177.112 -9.76563e-07L 177.112 26.735C 177.112 31.92 177.317 37.095 177.737 42.25C 180.598 77.831 193.301 112.124 215.212 140.509C 230.875 160.789 240.19 186.225 240.19 213.83Z" transform="translate(7.5 418.901) scale(1 -1)" fill="#FEC007"/>
</g>
<g id="bulb_detail">
<path d="M 61.891 58.8793C 22.793 47.6873 15.201 7.94029 14.887 6.20129C 14.169 2.12929 10.289 -0.602719 6.21596 0.114281C 2.13496 0.824281 -0.59704 4.70729 0.11196 8.78829C 0.46996 10.8513 9.45596 59.4713 57.761 73.2993C 58.451 73.4973 59.146 73.5913 59.829 73.5913C 63.091 73.5913 66.093 71.4453 67.035 68.1533C 68.177 64.1713 65.872 60.0193 61.891 58.8793Z" transform="translate(39.7559 195.645) scale(1 -1)" fill="black"/>
</g>
</g>
<g id="lamp_body">
<g id="lamp_body_2">
<path d="M 115.19 42.251L -5.24902e-06 42.251C 0.360995 37.662 0.536997 33.043 0.536997 28.405L 0.536997 -9.76563e-07L 114.565 -9.76563e-07L 114.565 26.735C 114.565 31.919 114.77 37.095 115.19 42.251Z" transform="translate(70.0469 418.901) scale(1 -1)" fill="#FE9700"/>
</g>
<g id="lamp_body_3">
<path d="M 128.695 113.206L 8.76878 113.206C 3.03678 113.206 -1.15122 107.797 0.283779 102.251L 3.26179 90.749L 20.9348 22.457L 25.0458 6.571C 26.0418 2.704 29.5278 -1.8692e-07 33.5208 -1.8692e-07L 103.932 -1.8692e-07C 107.926 -1.8692e-07 111.411 2.705 112.417 6.571L 116.528 22.457L 134.191 90.749L 137.169 102.251C 138.605 107.797 134.416 113.206 128.695 113.206Z" transform="translate(58.6816 504.504) scale(1 -1)" fill="#76C2E0"/>
</g>
<g id="lamp_body_4">
<path d="M 130.931 68.292L -9.76562e-07 68.292L 17.674 -3.35693e-07L 113.267 -3.35693e-07L 130.931 68.292Z" transform="translate(61.9434 482.048) scale(1 -1)" fill="#2796AF"/>
</g>
<g id="lamp_body_5">
<path d="M 142.612 38.999L 9.544 38.999C 4.273 38.999 6.5918e-06 34.726 6.5918e-06 29.455L 6.5918e-06 9.544C 6.5918e-06 4.273 4.273 -9.76563e-07 9.544 -9.76563e-07L 142.611 -9.76563e-07C 147.882 -9.76563e-07 152.155 4.273 152.155 9.544L 152.155 29.455C 152.156 34.726 147.883 38.999 142.612 38.999Z" transform="translate(51.332 467.401) scale(1 -1)" fill="#CAEDFF"/>
</g>
<g id="lamp_body_6">
<path d="M 5.08608 275.343C 5.88708 275.615 6.70108 275.744 7.50208 275.744C 10.6251 275.744 13.5401 273.778 14.6021 270.657C 18.4831 259.244 24.1541 248.574 31.4561 238.945C 56.3951 206.079 70.1911 167.92 71.5861 128.201L 85.7091 128.201L 85.7091 234.948C 85.7091 239.091 89.0661 242.448 93.2091 242.448C 97.3521 242.448 100.709 239.091 100.709 234.948L 100.709 211.468C 104.697 209.671 111.374 207.771 115.918 212.316C 118.566 214.964 122.8 215.224 125.784 212.965C 126.75 212.235 134.638 206.571 141.362 210.594L 141.362 234.947C 141.362 239.09 144.719 242.447 148.862 242.447C 153.005 242.447 156.362 239.09 156.362 234.947L 156.362 207.018C 156.362 207.018 156.362 207.011 156.362 207.008L 156.362 128.201L 170.92 128.201C 172.606 168.404 186.487 207.209 210.407 238.196C 225.72 258.026 233.813 281.792 233.813 306.924C 233.813 317.722 232.287 328.4 229.277 338.662C 228.111 342.637 230.387 346.805 234.362 347.971C 235.067 348.177 235.778 348.276 236.476 348.276C 239.72 348.276 242.71 346.155 243.67 342.885C 247.082 331.25 248.813 319.152 248.813 306.924C 248.813 278.445 239.638 251.508 222.28 229.029C 200.22 200.451 187.429 164.603 185.901 127.431C 189.013 126.453 191.786 124.567 193.851 121.903C 196.956 117.895 198.011 112.78 196.744 107.863L 192.237 90.436C 199.37 88.399 204.613 81.833 204.613 74.051L 204.613 54.141C 204.613 44.745 196.968 37.101 187.573 37.101L 178.43 37.101L 171.984 12.18C 170.125 5.008 163.652 0 156.242 0L 85.8321 0C 78.4221 0 71.9481 5.008 70.0911 12.182L 63.6461 37.1L 54.5021 37.1C 45.1061 37.1 37.4621 44.745 37.4621 54.14L 37.4621 74.05C 37.4621 81.832 42.7051 88.398 49.8381 90.434L 45.3291 107.868C 44.0631 112.78 45.1191 117.895 48.2251 121.902C 50.3831 124.687 53.3151 126.62 56.6001 127.554C 55.3351 164.208 42.5811 199.467 19.5061 229.879C 11.2301 240.793 4.80309 252.888 0.402092 265.825C -0.932908 269.749 1.16508 274.009 5.08608 275.343ZM 61.0711 113.2C 60.6641 113.2 60.3301 113.037 60.0811 112.715C 59.9061 112.489 59.7251 112.114 59.8521 111.618L 65.1581 91.1L 85.9861 91.1C 85.8101 91.737 85.7091 92.405 85.7091 93.098L 85.7091 113.2L 61.0711 113.2ZM 141.362 113.2L 100.709 113.2L 100.709 93.099C 100.709 92.406 100.607 91.738 100.432 91.101L 141.64 91.101C 141.464 91.738 141.363 92.406 141.363 93.099L 141.363 113.2L 141.362 113.2ZM 141.362 194.631C 134.115 193.164 126.958 195.198 121.672 197.911C 114.875 193.866 107.229 193.98 100.709 195.654L 100.709 128.2L 141.362 128.2L 141.362 194.631ZM 156.086 91.101L 176.916 91.101L 182.22 111.613C 182.35 112.116 182.169 112.49 181.994 112.715C 181.744 113.038 181.411 113.201 181.003 113.201L 178.243 113.201C 178.232 113.201 178.222 113.201 178.211 113.201L 156.363 113.201L 156.363 93.099C 156.363 92.406 156.262 91.738 156.086 91.101ZM 52.4611 54.141C 52.4611 53.016 53.3761 52.101 54.5011 52.101L 69.4251 52.101C 69.4351 52.101 69.4461 52.103 69.4561 52.103C 69.4641 52.103 69.4721 52.101 69.4791 52.101L 123.721 52.101C 127.864 52.101 131.221 48.744 131.221 44.601C 131.221 40.458 127.864 37.101 123.721 37.101L 79.1371 37.101L 84.6111 15.942C 84.7541 15.388 85.2561 15.002 85.8311 15.002L 156.241 15.002C 156.816 15.002 157.318 15.389 157.461 15.94L 162.935 37.102L 152.721 37.102C 148.578 37.102 145.221 40.459 145.221 44.602C 145.221 48.745 148.578 52.102 152.721 52.102L 187.571 52.102C 188.696 52.102 189.611 53.017 189.611 54.142L 189.611 74.052C 189.611 75.182 188.696 76.102 187.571 76.102L 54.5011 76.102C 53.3761 76.102 52.4611 75.182 52.4611 74.052L 52.4611 54.141Z" transform="translate(6.37305 512) scale(1 -1)" fill="black"/>
</g>
</g>
<g id="stroke">
<path d="M 125.693 145.254C 126.314 145.263 126.926 145.268 127.547 145.268C 172.65 145.265 214.706 121.259 237.636 82.2858C 239.737 78.7158 238.545 74.1188 234.976 72.0178C 231.404 69.9168 226.809 71.1088 224.708 74.6778C 204.469 109.078 167.353 130.268 127.548 130.268C 127.003 130.268 126.457 130.264 125.912 130.256C 65.4024 129.373 15.6514 79.4188 15.0074 18.9008C 14.9704 15.4348 15.1084 11.8098 15.4174 8.12682C 15.7644 3.99982 12.6984 0.372834 8.57044 0.0258345C 4.46544 -0.314166 0.815442 2.74282 0.469442 6.87282C 0.120442 11.0238 -0.0345709 15.1248 0.00642907 19.0608C 0.361429 52.3808 13.6024 83.8318 37.2904 107.616C 60.9804 131.401 92.3764 144.769 125.693 145.254Z" transform="translate(0 222.744) scale(1 -1)" fill="black"/>
</g>
<g id="blink">
<g id="blink_central">
<path d="M 7.50001 -1.26953e-05C 3.35701 -1.26953e-05 -1.09863e-06 3.35699 -1.09863e-06 7.49999L -1.09863e-06 50.463C -1.09863e-06 54.606 3.35701 57.963 7.50001 57.963C 11.643 57.963 15 54.606 15 50.463L 15 7.49999C 15 3.35799 11.642 -1.26953e-05 7.50001 -1.26953e-05Z" transform="translate(120.096 57.9629) scale(1 -1)" fill="black"/>
</g>
<g id="blink_left">
<path d="M 32.5756 2.19649L 2.19663 32.5755C -0.732373 35.5055 -0.732382 40.2535 2.19762 43.1825C 3.66162 44.6465 5.58163 45.3785 7.50063 45.3785C 9.41963 45.3785 11.3396 44.6465 12.8046 43.1815L 43.1836 12.8025C 46.1126 9.87251 46.1126 5.12451 43.1826 2.19551C 40.2546 -0.731489 35.5056 -0.732513 32.5756 2.19649Z" transform="translate(2.37891 78.0352) scale(1 -1)" fill="black"/>
</g>
<g id="blink_right">
<path d="M 12.8036 2.19724C 9.87362 -0.731763 5.12463 -0.732739 2.19763 2.19626C -0.732371 5.12626 -0.732378 9.87426 2.19662 12.8033L 32.5756 43.1823C 34.0406 44.6473 35.9596 45.3792 37.8796 45.3792C 39.7986 45.3792 41.7186 44.6473 43.1826 43.1833C 46.1126 40.2533 46.1126 35.5052 43.1836 32.5762L 12.8036 2.19724Z" transform="translate(207.432 78.0352) scale(1 -1)" fill="black"/>
</g>
</g>
</g>
</g>
</svg>

